<svg width="1575" height="1828" viewBox="0 0 1575 1828" fill="none" xmlns="http://www.w3.org/2000/svg">
<rect width="1575" height="1828" fill="white" fill-opacity="0.2"/>
<path id="STORE_1" d="M241 348H452V559H241V348Z" fill="#D9D9D9" fill-opacity="0.5"/>
<path id="RECORD_ROOM" d="M241 564H452V613H407V769H332V800H241V564Z" fill="#D9D9D9" fill-opacity="0.5"/>
<path id="STORE_2" d="M199 1043H307V1098H199V1043Z" fill="#D9D9D9" fill-opacity="0.5"/>
<path id="LR1" d="M164 1102H307V1271H164V1102Z" fill="#D9D9D9" fill-opacity="0.5"/>
<path id="LR2" d="M311 1043H454V1212H311V1043Z" fill="#D9D9D9" fill-opacity="0.5"/>
<path id="STORE_3"  d="M658 1203H705V1277H658V1203Z" fill="#D9D9D9" fill-opacity="0.5"/>
<path id="BANQUET_ROOM"  d="M1022 513V798H1138V667H1196V513H1022Z" fill="#D9D9D9" fill-opacity="0.5"/>
<path id="MAIN_CONF_ROOM"  d="M766 1251H708V1279H670V1494H962V1279H766V1251Z" fill="#D9D9D9" fill-opacity="0.5"/>
<path id="TOILET_M"   opacity="0.5" d="M514 421H655V523H514V421Z" fill="#D9D9D9" fill-opacity="0.5"/>
<path id="TOILET_F"   opacity="0.5" d="M659 421H811V523H659V421Z" fill="#D9D9D9" fill-opacity="0.5"/>
<path id="COURTYARD"   d="M940 639H720V762H535V1021H940V639Z" fill="#D9D9D9" fill-opacity="0.5"/>
<path id="PG_ROOM_BR_SM"   d="M242 1413H307V1465H242V1413Z" fill="#D9D9D9" fill-opacity="0.5"/>
<path id="PG_ROOM_BR"   d="M450.666 1413H309.666V1468H241.666V1580.43L202 1618.18L208.876 1620.2L251.525 1660.98L251.707 1660.23L277.345 1685.87L301.591 1712.72L306.637 1708.16L308.911 1710.44L309.666 1709.68V1713H511.666V1506H450.666V1413Z" fill="#D9D9D9" fill-opacity="0.5"/>
<path id="WASTE_DISPOSAL"   d="M809 41H1016V161H809V41Z" fill="#D9D9D9" fill-opacity="0.5"/>
<path id="MECHATRONICS_LAB"   d="M1022 41H1354V171H1374V260H1235V404H1022V41Z" fill="#D9D9D9" fill-opacity="0.5"/>
<path id="CHEMICAL_ROOM"   d="M1238 262H1374V348H1238V262Z" fill="#D9D9D9" fill-opacity="0.5"/>
<path id="STAFF_ROOM_1"   d="M1025 406H1109V510H1025V406Z" fill="#D9D9D9" fill-opacity="0.5"/>
<path id="DO_SYNDICATE_MEETING_ROOM_1"   d="M1106 866H1023V967H1106V962H1086C1087.75 948.939 1092.94 945.257 1106 942V866Z" fill="#D9D9D9" fill-opacity="0.5"/>
<path id="DO_PRINTING_ROOM"   d="M1197 866H1109V934H1173C1176.26 920.936 1179.94 915.753 1193 914V934H1197V866Z" fill="#D9D9D9" fill-opacity="0.5"/>
<path id="DO_STORE"   d="M1168 998H1109V1047H1197V998H1188V1018C1174.94 1016.25 1171.26 1011.06 1168 998Z" fill="#D9D9D9" fill-opacity="0.5"/>
<path id="SYNDICATE_ROOM_4"   d="M1197 1051H1109V1137H1122V1117C1135.06 1120.26 1140.25 1123.94 1142 1137H1197V1051Z" fill="#D9D9D9" fill-opacity="0.5"/>
<path id="VIDEO_CONF_ROOM"   d="M513 1112H681V1137H661C664.257 1150.06 667.939 1155.25 681 1157C667.939 1158.75 664.257 1163.94 661 1177H681V1202H657V1278H661V1353H512V1278H513V1112Z" fill="#D9D9D9" fill-opacity="0.5"/>
<path id="SYNDICATE_MEETING_ROOM_2"   d="M1106 969H1023V1047H1106V992C1092.94 988.743 1087.75 985.061 1086 972H1106V969Z" fill="#D9D9D9" fill-opacity="0.5"/>
<path id="STAFF_ROOM_1"   d="M1247 884H1305V982H1247V884Z" fill="#D9D9D9" fill-opacity="0.5"/>
<path id="STAFF_ROOM_3"   d="M1248 1124H1306V1204H1248V1124Z" fill="#D9D9D9" fill-opacity="0.5"/>
<path id="EXEC_COMPUTER_ROOM"   d="M1122 1208H1109V1339H1197V1208H1142C1140.25 1221.06 1135.06 1224.74 1122 1228V1208Z" fill="#D9D9D9" fill-opacity="0.5"/>
<path id="SYNDICATE_MEETING_ROOM_5"   d="M1080 1208H1025V1300H1106V1208H1100V1228C1086.94 1224.74 1081.75 1221.06 1080 1208Z" fill="#D9D9D9" fill-opacity="0.5"/>
<path id="STAFF_ROOM_4"   d="M1308 1124H1376V1204H1308V1124Z" fill="#D9D9D9" fill-opacity="0.5"/>
<path id="STAFF_ROOM_2"   d="M1306 884H1378V982H1306V884Z" fill="#D9D9D9" fill-opacity="0.5"/>
<path id="STAFF_ROOM"   d="M1277 1414H1317V1501H1277V1414Z" fill="#D9D9D9" fill-opacity="0.5"/>
<path id="KITCHEN"   fill-rule="evenodd" clip-rule="evenodd" d="M1197 1342H1109V1373H1169C1170.75 1359.94 1175.94 1356.26 1189 1353V1373H1197V1342Z" fill="#D9D9D9" fill-opacity="0.5"/>
<path id="MANAGER_ROOM_1"   fill-rule="evenodd" clip-rule="evenodd" d="M1463 1355H1376V1404C1389.06 1405.75 1392.74 1410.94 1396 1424H1376V1425H1463V1355Z" fill="#D9D9D9" fill-opacity="0.5"/>
<path id="MANAGER_ROOM_2"   fill-rule="evenodd" clip-rule="evenodd" d="M1463 1428H1376V1431H1396C1392.74 1444.06 1389.06 1449.25 1376 1451V1501H1463V1428Z" fill="#D9D9D9" fill-opacity="0.5"/>
<path id="SYNDICATE_MEETING_ROOM_3"   fill-rule="evenodd" clip-rule="evenodd" d="M1106 1051H1023V1137H1080C1081.75 1123.94 1086.94 1120.26 1100 1117V1137H1106V1051Z" fill="#D9D9D9" fill-opacity="0.5"/>
<path id="MEETING_ROOM"   fill-rule="evenodd" clip-rule="evenodd" d="M1463 1506H1297C1293.74 1519.06 1290.06 1524.25 1277 1526V1606H1463V1506Z" fill="#D9D9D9" fill-opacity="0.5"/>
<path id=""   d="M1022 864H1209V882H1380V1350H1466.5V1611H1193V1503H1106V1304H1021.5V1205H1043.5V1138.5H1021.5V864" stroke="black"/>
</svg>