<svg width="1347" height="1176" viewBox="0 0 1347 1176" fill="none" xmlns="http://www.w3.org/2000/svg">
<rect width="1347" height="1176" fill="white" fill-opacity="0.5"/>
<path d="M979.5 294V317H860V302H760V317H752V235H739V170.5H752V117H979.5M979.5 294V117M979.5 294H1052.5M979.5 117H1107L1183 193V294M1183 294V570H1052.5V294M1183 294H1052.5M1050.5 711.5H1266V1059.5H1179.5V954H1050.5V711.5ZM488 1001V1035H637.5V1074H874V1035H1023V995H1010V1028.5H951V995H934V1028.5H883.5V995H862V1061.5H648.5V995H628.5V1028.5H577V1001H562.5V1028.5H497V1001H488ZM254 672H356.5V711H254V672ZM254 770H353.5V832.5H254V770ZM412 117V317H685V235H697.5V170.5H685V117H412ZM353 117H199L103 212V360.5H253.5V671.5H524V355H353V117ZM177.5 833V1017H353.5V833H177.5ZM393.5 955.5H685V806H697V710H433V806H393.5V955.5ZM739.5 710H1002V954H827.5V835.5H752V806H739.5V710ZM100 116.5V1077H1267.5V116.5H100ZM929 358.5V568.5H1003V358.5H929Z" stroke="black"/>
<path id="staff_room_14" d="M415 119H460V190H415V119Z" fill="#D9D9D9" fill-opacity="0.5"/>
<path id="staff_room_15" d="M415 192H460V259H415V192Z" fill="#D9D9D9" fill-opacity="0.5"/>
<path id="staff_room_16" d="M415 262H479V316H415V262Z" fill="#D9D9D9" fill-opacity="0.5"/>
<path id="staff_room_12"  d="M511 262H568V316H511V262Z" fill="#D9D9D9" fill-opacity="0.5"/>
<path id="staff_room_11"  d="M511 203V259H568V233H572V203H511Z" fill="#D9D9D9" fill-opacity="0.5"/>
<path id="staff_room_9"  d="M573.5 243.5V237H576.5V252.5C584.466 251.229 587.55 248.531 590.5 240H601.5L627 265.5V316H571V243.5H573.5Z" fill="#D9D9D9" fill-opacity="0.5"/>
<path id="staff_room_7"  d="M630 266H683V316H630V266Z" fill="#D9D9D9" fill-opacity="0.5"/>
<path id="staff_room_5"  d="M695 172H646V237H676V233H695V172Z" fill="#D9D9D9" fill-opacity="0.5"/>
<path id="staff_room_13"  d="M463 119H516V169H463V119Z" fill="#D9D9D9" fill-opacity="0.5"/>
<path id="staff_room_10"  d="M518 119H571V169H518V119Z" fill="#D9D9D9" fill-opacity="0.5"/>
<path id="staff_room_8"  d="M574 119H627V169H574V119Z" fill="#D9D9D9" fill-opacity="0.5"/>
<path id="staff_room_6"  d="M630 119H683V169H630V119Z" fill="#D9D9D9" fill-opacity="0.5"/>
<path id="ddaa_dean_room"  d="M255 460H307V561H255V460Z" fill="#D9D9D9" fill-opacity="0.5"/>
<path id="ddaa_dean_room_bath"  d="M256 565H307V598H256V565Z" fill="#D9D9D9" fill-opacity="0.5"/>
<path id="ddaa_filing_room"  d="M256 601H307V669H256V601Z" fill="#D9D9D9" fill-opacity="0.5"/>
<path id="ddaa_kitchen"  d="M311 630H355V669H311V630Z" fill="#D9D9D9" fill-opacity="0.5"/>
<path id="ddaa_store"  d="M358 630H393V669H358V630Z" fill="#D9D9D9" fill-opacity="0.5"/>
<path id="ddaa_sr_asst_dir_room_1"  d="M396 618H456V669H396V618Z" fill="#D9D9D9" fill-opacity="0.5"/>
<path id="ddaa_sr_asst_dir_room_2"  d="M459 618H523V669H459V618Z" fill="#D9D9D9" fill-opacity="0.5"/>
<path id="ddaa_waiting_room"  d="M481 543H523V615H481V543Z" fill="#D9D9D9" fill-opacity="0.5"/>
<path id="ddaa_dep_dean_room_1"  d="M463 356H523V420H463V356Z" fill="#D9D9D9" fill-opacity="0.5"/>
<path id="ddaa_sec_room"  d="M463 423H522V465H463V423Z" fill="#D9D9D9" fill-opacity="0.5"/>
<path id="ddaa_sec_room_2"  d="M414 356H460V420H414V356Z" fill="#D9D9D9" fill-opacity="0.5"/>
<path id="ddaa_dep_dean_room_1"  d="M355 356H411V420H355V356Z" fill="#D9D9D9" fill-opacity="0.5"/>
<path id="ddaa_computer_room"  d="M311 530H355V597H311V530Z" fill="#D9D9D9" fill-opacity="0.5"/>
<path id="ddaa_dean_sec_room"  d="M311 460H355V527H311V460Z" fill="#D9D9D9" fill-opacity="0.5"/>
<path id="male_toilet_1"  d="M254 673H356V711H254V673Z" fill="#D9D9D9" fill-opacity="0.5"/>
<path id="female_toilet_1" d="M254 770H353V832H254V770Z" fill="#D9D9D9" fill-opacity="0.5"/>
<path id="staff_room_26"  d="M303 834H254V893H260V905H301V893H303V834Z" fill="#D9D9D9" fill-opacity="0.5"/>
<path id="staff_room_25"  d="M353 834H304V905H349V893H353V834Z" fill="#D9D9D9" fill-opacity="0.5"/>
<path id="staff_room_29"  d="M188 834H251V875H180V840H184V836H188V834Z" fill="#D9D9D9" fill-opacity="0.5"/>
<path id="staff_room_30"  d="M180 971H250V1015H180V971Z" fill="#D9D9D9" fill-opacity="0.5"/>
<path id="staff_room_28"  d="M301 942H260V959H254V1015H301V942Z" fill="#D9D9D9" fill-opacity="0.5"/>
<path id="staff_room_27"  d="M304 942H351V1015H304V942Z" fill="#D9D9D9" fill-opacity="0.5"/>
<path id="staff_lounge_1"  d="M183 880H247V966H183V880Z" fill="#D9D9D9" fill-opacity="0.5"/>
<path id="enginius_meet_room"  d="M869 221H978V316H869V221Z" fill="#D9D9D9" fill-opacity="0.5"/>
<path id="lr_24"  d="M869 117H978V218H869V117Z" fill="#D9D9D9" fill-opacity="0.5"/>
<path id="exam_hall"  d="M1056 297H1181V567H1056V297Z" fill="#D9D9D9" fill-opacity="0.5"/>
<path id="pg_lab"  d="M1056 714H1263V950H1056V714Z" fill="#D9D9D9" fill-opacity="0.5"/>
<path id="e1_conf_room_l2"  d="M460 807V950H684V807H460Z" fill="#D9D9D9" fill-opacity="0.5"/>
<path id="lr_9"  d="M436 714H544V804H436V714Z" fill="#D9D9D9" fill-opacity="0.5"/>
<path id="lr_8"  d="M548 714H656V804H548V714Z" fill="#D9D9D9" fill-opacity="0.5"/>
<path id="store_l2_1"  d="M660 714H694V804H660V714Z" fill="#D9D9D9" fill-opacity="0.5"/>
<path id="staff_room_22"  d="M396 807H456V854H396V807Z" fill="#D9D9D9" fill-opacity="0.5"/>
<path id="staff_room_23"  d="M396 857H456V905H396V857Z" fill="#D9D9D9" fill-opacity="0.5"/>
<path id="staff_room_24"  d="M396 907H456V955H396V907Z" fill="#D9D9D9" fill-opacity="0.5"/>
<path id="lr_7"  d="M743 715H828V835H761V827H754V804H743V715Z" fill="#D9D9D9" fill-opacity="0.5"/>
<path id="ddsa_meet_room_2"  d="M832 713H914V769H832V713Z" fill="#D9D9D9" fill-opacity="0.5"/>
<path id="ddsa_meet_room_1"  d="M918 713H1000V769H918V713Z" fill="#D9D9D9" fill-opacity="0.5"/>
<path id="ddsa_coord_room_1"  d="M944 773H1000V830H944V773Z" fill="#D9D9D9" fill-opacity="0.5"/>
<path id="ddsa_coord_room_2"  d="M832 773H888V830H832V773Z" fill="#D9D9D9" fill-opacity="0.5"/>
<path id="ddsa_coord_room_3"  d="M830 834H888V893H830V834Z" fill="#D9D9D9" fill-opacity="0.5"/>
<path id="ddsa_waiting_area_1"  d="M944 834H1000V906H944V834Z" fill="#D9D9D9" fill-opacity="0.5"/>
<path id="ddsa_waiting_area_2"   d="M944 910H1000V951H944V910Z" fill="#D9D9D9" fill-opacity="0.5"/>
<path id="ddsa_coord_room_3" d="M830 897H888V951H830V897Z" fill="#D9D9D9" fill-opacity="0.5"/>
<path id="smart_structure_lab"  d="M1108 120H981V293H1152V264.5C1165.42 258.338 1169.48 252.613 1170 238H1152V163H1151L1108 120Z" fill="#D9D9D9" fill-opacity="0.5"/>
<path id="oscent_room"  opacity="0.5" d="M866 120H754V172H741V201H866V120Z" fill="#D9D9D9"/>
<path id="enginius_office"  opacity="0.5" d="M741 204V233H754V293H866V204H741Z" fill="#D9D9D9"/>
<path id="ddpg_room_17"  d="M311 119H351V169H305.388C303.437 160.51 300.28 158.044 292 157V169H290V130H311V119Z" fill="#D9D9D9" fill-opacity="0.5"/>
<path id="ddpg_room_19"  d="M288 119H235V184H272.112C274.063 175.51 277.22 173.044 285.5 172V184H288V119Z" fill="#D9D9D9" fill-opacity="0.5"/>
<path id="ddpg_room_20"  d="M232.5 119V183.5H195L196.331 182.169L196.546 182.385L205.385 173.546C204.639 172.967 203.927 172.448 203.24 171.988C197.455 167.48 192.959 168.763 185 173.5L169 157.5L176 150.5L173.5 148L176.5 145L174.5 143L195 122.5L198.5 126L202 122.5H213.5V119H232.5Z" fill="#D9D9D9" fill-opacity="0.5"/>
<path id="ddpg_room_21"  d="M259 187H200V189H212.5C211.435 197.44 208.894 200.558 200 202.5V241H259V187Z" fill="#D9D9D9" fill-opacity="0.5"/>
<path id="ddpg_room_18"  d="M351 172H311V221C319.894 222.942 322.435 226.06 323.5 234.5H311V237H351V172Z" fill="#D9D9D9" fill-opacity="0.5"/>
<path id="ddpg_printing_room"  d="M131 268H106V358H144V268H140.5V281C134.507 278.422 132.303 275.712 131 268Z" fill="#D9D9D9" fill-opacity="0.5"/>
<path id="ddpg_empty_room"  d="M179 268H145V358H179V352H190C188.306 346.521 185.575 344.871 179.364 343C186.774 340.942 188.95 338.903 190 334H179V268Z" fill="#D9D9D9" fill-opacity="0.5"/>
<path id="ddpg_asst_dir_room_2"  d="M246 270H182V326H230C232.773 317.807 235.624 314.931 243.5 313.5V326H246V270Z" fill="#D9D9D9" fill-opacity="0.5"/>
<path id="ddpg_asst_dir_room_1"  d="M313 270H249V326H253V313C260.045 314.596 262.915 317.687 265.428 326H313V270Z" fill="#D9D9D9" fill-opacity="0.5"/>
<path id="ddaa_meet_room"  d="M307 360H255V457H262V445C269.713 446.402 272.607 449.189 275.328 457H307V445H296C297.314 438.863 299.896 436.47 307 434.296V433.704C299.896 431.53 297.314 429.137 296 423H307V360Z" fill="#D9D9D9" fill-opacity="0.5"/>
<path id="student_study_area"  d="M652 993H859V1059H652V993Z" fill="#D9D9D9"/>
<rect x="932" y="359" width="70" height="97" fill="#D9D9D9" fill-opacity="0.5"/>
<rect x="932" y="478" width="70" height="87" fill="#D9D9D9" fill-opacity="0.5"/>
</svg>